<svg id="Layer_1" data-name="Layer 1" xmlns="http://www.w3.org/2000/svg" viewBox="0 0 48.66 60"><title>logo</title><path d="M25.48,22.25A7.72,7.72,0,0,1,27,17.39H22.82a5.91,5.91,0,0,1,.86,1.45,10.7,10.7,0,0,1,.62,4.49H20.22q0-.78,0-1.56a2.81,2.81,0,0,0-.65-1.83,2.34,2.34,0,0,0-2-.48,1.74,1.74,0,0,0-1.33,1A4.9,4.9,0,0,0,16,22.9a6.29,6.29,0,0,0,1.65,3.35c1.09,1.25,2.39,2.28,3.54,3.47a12.22,12.22,0,0,1,2.28,3.11,9.41,9.41,0,0,1,.91,4.37A8.54,8.54,0,0,1,23.49,41h2.86a9.23,9.23,0,0,1-.87-4.46Z" transform="translate(-0.3 0)" style="fill:#ee2530"/><path d="M34.27,22a3.15,3.15,0,0,0-.62-2,2.11,2.11,0,0,0-1.65-.6,2,2,0,0,0-1.64.68,3.31,3.31,0,0,0-.56,2.08v15.1a3.07,3.07,0,0,0,.63,2.08,2.29,2.29,0,0,0,1.93.56,1.88,1.88,0,0,0,1.48-.81,4.24,4.24,0,0,0,.43-2.33V33.24h2.16q0-4,0-8.09c-.73,0-1.45,0-2.17,0Z" transform="translate(-0.3 0)" style="fill:#ee2530"/><path d="M16.57,31.37a20.26,20.26,0,0,1-3.51-3.83v7.7h2.5c0,.52,0,1,0,1.55A4.26,4.26,0,0,0,16,39.09a1.85,1.85,0,0,0,1.43.83,2.51,2.51,0,0,0,1.85-.42A2.41,2.41,0,0,0,20,37.85a5.45,5.45,0,0,0-.75-3.44A14.62,14.62,0,0,0,16.57,31.37Z" transform="translate(-0.3 0)" style="fill:#ee2530"/><path d="M23.59,7.66a12.78,12.78,0,0,0,2.55,0,3.68,3.68,0,0,0,.67-2.19c-.14-1.68.28-3.44-.36-5a4.4,4.4,0,0,0-3.69,0,43.26,43.26,0,0,0,0,6.54Z" transform="translate(-0.3 0)" style="fill:#ee2530"/><path d="M15.05,11.79c0-.46,0-.93,0-1.4-1-1.12-2.12-2.19-3.19-3.27a4.22,4.22,0,0,0-1.33-.88l-.42,0A6.67,6.67,0,0,0,8.35,7.51c-.26.59-.61,1.36-.08,1.91,1.19,1.34,2.55,2.52,3.76,3.85a4.63,4.63,0,0,0,1.74-.11A5.76,5.76,0,0,0,15.05,11.79Z" transform="translate(-0.3 0)" style="fill:#ee2530"/><path d="M41.26,7.8c-.78-.63-1.57-1.91-2.73-1.42C37,7.34,36,9,34.56,10.16c-.79,1.24.27,2.37,1.17,3.15.64-.07,1.43.14,1.91-.42,1.23-1.27,2.72-2.3,3.69-3.8C41.31,8.66,41.28,8.23,41.26,7.8Z" transform="translate(-0.3 0)" style="fill:#ee2530"/><path d="M6.62,22.45c-1.65,0-3.31-.09-5,.07C.89,22.61.57,23.38.3,24c.12.6.23,1.21.32,1.82l.69.69c2,.1,4,.08,5.92,0,.33-.41.67-.82,1-1.22a8.47,8.47,0,0,0-.15-1.88A1.52,1.52,0,0,0,6.62,22.45Z" transform="translate(-0.3 0)" style="fill:#ee2530"/><path d="M48.94,23.35c-.43-.44-.9-1-1.59-.89-1.69,0-3.38-.08-5.07.05-1.39.41-1,2.12-1,3.21l.79.8c2,.08,4,.1,6,0,.28-.29.57-.57.85-.85Q49,24.52,48.94,23.35Z" transform="translate(-0.3 0)" style="fill:#ee2530"/><path d="M31.77,44.73c.94-.17,2.16-.27,2.75.67a2.57,2.57,0,0,1-2.06,3.23q-7.3.9-14.63,1.76c-1.8.4-2.91-2.34-1.5-3.38a3.28,3.28,0,0,1,1.84-.65Z" transform="translate(-0.3 0)" style="fill:#102137"/><path d="M26.26,51.41c1.5,0,3.19-.85,4.55.08,1.12,1.14,0,3.22-1.5,3.39-2.52.35-5,.6-7.57.93a2.43,2.43,0,0,1-2.17-.45A1.92,1.92,0,0,1,19.38,53a2.55,2.55,0,0,1,1.85-1C22.91,51.8,24.59,51.62,26.26,51.41Z" transform="translate(-0.3 0)" style="fill:#102137"/><path d="M23.16,57.83c1.59-.27,3.21-.42,4.82-.56,0,2.42-3.59,3.64-5.2,1.93A.83.83,0,0,1,23.16,57.83Z" transform="translate(-0.3 0)" style="fill:#102137"/></svg>